<?xml version="1.0" encoding="UTF-8"?>
<svg id="Calque_1" data-name="Calque 1" xmlns="http://www.w3.org/2000/svg" viewBox="0 0 1834.58 1324.43">
  <defs>
    <style>
      .cls-1 {
        fill: #00284b;
      }

      .cls-2 {
        fill: #fff;
      }
    </style>
  </defs>
  <g>
    <path class="cls-1" d="m904.13,207.45c-5.58-.35-11.13-.52-16.64-.53-76.81-.09-146.4,32.63-207.03,97.43-55.12,58.92-73.65,106.33-73.48,163.59.08,30.63,5.52,64.07,13.57,103.6,15.13,74.33,59.25,146.08,121.06,196.89,47.32,38.89,100.09,58.75,155.7,59.12,28.82.19,58.4-4.85,88.39-15.2,96.81-33.42,189.42-129.08,225.2-232.64,11.33-32.77,16.83-64.67,16.71-95.02-.29-74.18-34.17-139.19-98.92-185.68-78.54-56.41-154.09-87.21-224.55-91.56"/>
    <g>
      <path class="cls-2" d="m793.6,518.23h-21.29l-.02.6c-.17,4.14-2.63,40.35-35.03,40.35-28.96,0-43.65-25.95-43.68-77.14.03-51.19,14.72-77.14,43.68-77.14,32.96,0,34.96,38.7,35.03,40.34l.02.6h21.29c1.96,0,3.88-.81,5.25-2.21,1.31-1.35,1.99-3.09,1.9-4.91-.44-10.04-5.6-60.14-63.79-60.14-47.02,0-71.87,35.74-71.87,103.35s24.85,103.56,71.87,103.56c56.01,0,62.97-45.76,63.78-59.78.14-1.93-.52-3.79-1.88-5.22-1.36-1.44-3.29-2.26-5.25-2.26"/>
      <path class="cls-2" d="m1124.37,469.74h0s-18.33-7.99-18.33-7.99c-17.64-7.75-23.89-15.28-23.89-28.81,0-17.63,12.91-29.48,32.1-29.48,11.35,0,20.66,2.32,32.03,13.91l.62.63,9.79-8.95c5.66-5.26,4.03-10,1.66-13.04-9.55-11.26-24.87-17.44-43.17-17.44-35.28,0-60.89,23.02-60.89,54.73s19.65,44.22,40.88,53.66l18.71,8.35c18.8,8.43,27.76,15.62,27.76,33.7,0,24.68-22.29,31.26-35.47,31.26-11.33,0-23.95-2.43-39.45-19.99l-.61-.69-10.19,8.95c-5.25,4.62-5.29,8.57-.18,15.14,14.03,18.04,34.6,21.83,49.39,21.83,31.98,0,64.36-19.64,64.36-57.18,0-32.49-18.04-46.92-45.13-58.58"/>
      <path class="cls-2" d="m943.59,437.78c0-31.94-25.88-59.01-57.84-59.01-15.03,0-28.72,5.73-39,15.13v-10.98h-19.24c-5.8,0-8.01,3.78-8.01,8.13v186.4c0,5.25,3.2,8.05,7.92,8.05h19.25v-146.59c0-19.26,15.62-34.87,34.88-34.87s34.87,15.61,34.87,34.87v146.62h19.12c5.3,0,8.05-2.95,8.05-8.02v-139.73Z"/>
      <path class="cls-2" d="m1053.94,392.71c1.01-1.25,1.63-2.81,1.63-4.53,0-3.21-2.09-5.91-4.97-6.88-5.57-1.86-11.5-2.89-17.66-2.89-15.03,0-28.72,5.73-39,15.13v-10.98h-19.24c-5.8,0-8.02,3.78-8.02,8.13v186.4c0,5.25,3.21,8.05,7.93,8.05h19.24v-146.59c0-19.26,15.62-34.87,34.88-34.87,5.05,0,9.83,1.09,14.15,3.02l11.12-13.95-.06-.04Z"/>
    </g>
  </g>
  <g>
    <rect class="cls-1" x="206.92" y="963.78" width="27.04" height="154.41"/>
    <polygon class="cls-1" points="368.3 1073.41 295.85 963.78 269.02 963.78 269.02 1118.19 295.63 1118.19 295.63 1008.72 368.3 1118.19 394.91 1118.19 394.91 963.78 368.3 963.78 368.3 1073.41"/>
    <polygon class="cls-1" points="432.09 963.78 429.98 963.78 429.98 1118.19 457.02 1118.19 457.02 1055.03 514.47 1055.03 514.47 1030.74 457.02 1030.74 457.02 988.7 525.46 988.7 525.46 963.78 457.02 963.78 432.09 963.78"/>
    <path class="cls-1" d="m655.47,971.17c-11.2-6.76-24.19-10.14-38.97-10.14s-27.78,3.38-38.97,10.14-19.96,16.16-26.3,28.2c-6.34,12.04-9.51,25.95-9.51,41.72s3.13,29.43,9.4,41.4c6.26,11.97,15.03,21.33,26.3,28.09,11.26,6.76,24.22,10.14,38.87,10.14s27.81-3.38,39.08-10.14c11.26-6.76,20.07-16.16,26.4-28.2,6.34-12.04,9.51-25.88,9.51-41.51s-3.17-29.64-9.51-41.61c-6.34-11.97-15.1-21.33-26.3-28.09Zm1.8,98.12c-3.8,8.1-9.16,14.36-16.05,18.8-6.9,4.44-15.14,6.65-24.71,6.65s-17.64-2.18-24.61-6.55c-6.97-4.36-12.36-10.59-16.16-18.69-3.8-8.1-5.7-17.64-5.7-28.62s1.9-20.49,5.7-28.52c3.8-8.03,9.19-14.26,16.16-18.69,6.97-4.44,15.17-6.65,24.61-6.65s17.81,2.22,24.71,6.65c6.9,4.44,12.25,10.67,16.05,18.69,3.8,8.03,5.7,17.53,5.7,28.52s-1.9,20.31-5.7,28.41Z"/>
    <path class="cls-1" d="m824.87,1038.24c4.72-7.25,7.08-16.02,7.08-26.3,0-15.21-4.89-27.04-14.68-35.49-9.79-8.45-23.41-12.67-40.87-12.67h-58.93v154.41h27.04v-57.67h33.16l26.19,57.67h29.57l-29.36-63.37c9.15-3.8,16.09-9.33,20.81-16.58Zm-28.41-8.13c-4.79,4.37-11.48,6.55-20.07,6.55h-31.9v-48.79h31.9c8.59,0,15.28,2.08,20.07,6.23,4.79,4.16,7.18,10.11,7.18,17.85s-2.4,13.8-7.18,18.17Z"/>
    <path class="cls-1" d="m935.88,1086.72l-49.85-122.94h-26.19v154.41h26.19v-55.34c0-9.72-.11-18.17-.32-25.35-.21-7.18-.67-13.1-1.37-17.74l39.08,98.43h24.93l39.29-98.65c-.42,2.82-.71,5.63-.85,8.45-.14,2.82-.28,6.06-.42,9.72-.14,3.66-.21,8.13-.21,13.41v67.07h26.19v-154.41h-26.62l-49.85,122.94Z"/>
    <path class="cls-1" d="m1088.39,963.78l-55.77,154.41h27.88l12.67-35.7h57.67l12.46,35.7h28.52l-55.77-154.41h-27.67Zm-7.39,95.9l17.74-49.85c.7-2.11,1.37-4.26,2.01-6.44.63-2.18,1.09-3.98,1.37-5.39.14,1.55.56,3.38,1.27,5.49.7,2.11,1.34,4.22,1.9,6.34l17.74,49.85h-42.04Z"/>
    <polygon class="cls-1" points="1164.85 988.7 1210.06 988.7 1210.06 1118.19 1237.1 1118.19 1237.1 988.7 1282.3 988.7 1282.3 963.78 1164.85 963.78 1164.85 988.7"/>
    <rect class="cls-1" x="1303.85" y="963.78" width="27.04" height="154.41"/>
    <path class="cls-1" d="m1458.78,1087.14c-7.54,5.07-16.58,7.6-27.14,7.6-9.29,0-17.43-2.22-24.4-6.65-6.97-4.44-12.36-10.7-16.16-18.8-3.8-8.1-5.7-17.5-5.7-28.2s1.9-20.7,5.7-28.73c3.8-8.03,9.19-14.22,16.16-18.59,6.97-4.36,15.1-6.55,24.4-6.55,10.42,0,19.26,2.5,26.51,7.5,7.25,5,12.21,12.01,14.89,21.02h28.52c-1.69-11.12-5.7-20.73-12.04-28.83-6.34-8.1-14.36-14.4-24.08-18.91-9.72-4.51-20.7-6.76-32.95-6.76-14.93,0-28.09,3.31-39.5,9.93-11.41,6.62-20.25,15.92-26.51,27.88-6.27,11.97-9.4,25.98-9.4,42.04s3.06,30.24,9.19,42.14c6.13,11.9,14.71,21.12,25.77,27.67,11.05,6.55,24.11,9.82,39.18,9.82,12.25,0,23.34-2.25,33.27-6.76,9.93-4.5,18.17-10.84,24.71-19.01,6.55-8.17,10.81-17.6,12.78-28.31h-28.09c-2.54,8.59-7.57,15.42-15.1,20.49Z"/>
    <path class="cls-1" d="m1617.94,1046.05c-6.48-6.83-16.34-11.65-29.57-14.47l-24.29-5.49c-6.48-1.55-11.23-3.91-14.26-7.08-3.03-3.17-4.54-7.5-4.54-12.99,0-6.48,2.5-11.58,7.5-15.31,5-3.73,11.65-5.6,19.96-5.6,7.6,0,13.66,1.87,18.17,5.6,4.51,3.73,6.9,8.91,7.18,15.53h27.04c-.28-9.29-2.57-17.32-6.87-24.08-4.3-6.76-10.28-11.97-17.95-15.63-7.68-3.66-16.72-5.49-27.14-5.49s-20.38,1.94-28.62,5.81c-8.24,3.88-14.68,9.26-19.33,16.16-4.65,6.9-6.97,14.86-6.97,23.87,0,11.97,3.38,21.65,10.14,29.04,6.76,7.39,16.69,12.5,29.78,15.31l24.5,5.49c6.34,1.27,10.91,3.49,13.73,6.65,2.82,3.17,4.22,7.43,4.22,12.78,0,6.2-2.64,11.16-7.92,14.89-5.28,3.73-12.43,5.6-21.44,5.6s-15.39-1.86-20.38-5.6c-5-3.73-7.57-8.83-7.71-15.31h-27.04c.28,9.16,2.71,17.11,7.29,23.87,4.58,6.76,10.95,12.01,19.12,15.74,8.17,3.73,17.67,5.6,28.52,5.6,11.41,0,21.37-1.94,29.89-5.81,8.52-3.87,15.1-9.4,19.75-16.58s6.97-15.49,6.97-24.93c0-11.54-3.24-20.73-9.72-27.57Z"/>
  </g>
</svg>