<?xml version="1.0" encoding="UTF-8"?>
<svg xmlns="http://www.w3.org/2000/svg" id="Footer" viewBox="0 0 469.81 229.61">
  <defs>
    <style>.cls-1{fill:#fff;}.cls-2{fill:#f9dc00;}</style>
  </defs>
  <path class="cls-2" d="m132.7,71.22c-4.53,5.87-8.91,11.54-13.19,17.09,4.2,5.43,8.61,11.14,13.2,17.08.34-.15,1.05-.42,1.72-.77,13.43-7,27.75-10.31,42.87-10.36,2.3,0,3.14.56,3.11,3.01-.15,15.19-3.44,29.58-10.57,43.03-.89,1.68-.53,2.42.96,3.32,8.92,5.38,16.42,12.23,21.71,21.3,1.89,3.24,1.24,7.34-1.43,9.62-2.59,2.22-6.84,2.29-9.57.16-2.75-2.15-3.67-6.04-1.87-9.29.87-1.58.54-2.51-.55-3.66-4.44-4.71-9.54-8.55-15.16-11.74-1.31-.75-2.19-.9-3.3.56-2.57,3.37-6.66,3.97-10.01,1.75-3.15-2.07-4.26-6.13-2.6-9.53,1.69-3.47,5.72-5.06,9.58-3.51,1.63.66,2.34.26,3.15-1.12,5.91-10.18,8.99-21.23,10.25-32.85.15-1.36-.28-1.91-1.66-1.74-11.52,1.36-22.55,4.28-32.68,10.12-1.47.85-2.17,1.53-1.39,3.45,1.52,3.74-.16,7.65-3.61,9.3-3.43,1.63-7.46.55-9.51-2.56-2.14-3.25-1.49-7.6,1.78-10.04,1.44-1.07,1.42-1.88.64-3.26-3.33-5.89-7.07-11.44-12.34-15.81-1.16-.96-2.08-1.27-3.48-.28-2.7,1.9-5.61,1.87-8.32-.04-2.5-1.76-3.71-4.25-3.15-7.32.63-3.43,2.79-5.72,6.24-6.1,1.71-.19,3.7.42,5.28,1.22,1.37.7,2.17.65,3.29-.28,5.53-4.57,9.44-10.38,12.84-16.6.8-1.47-.22-1.89-1.09-2.57-2.48-1.93-3.29-4.56-2.71-7.53.55-2.82,2.38-4.67,5.17-5.54,2.83-.87,5.29-.11,7.33,1.86,2.24,2.16,2.84,4.93,1.7,7.76-.78,1.94-.16,2.72,1.43,3.64,10.08,5.79,21.03,8.69,32.47,10.05,1.3.16,1.92-.2,1.77-1.64-1.24-11.71-4.34-22.83-10.32-33.07-.78-1.33-1.49-1.59-3-1.02-4.46,1.71-8.93-.49-10.14-4.77-1.19-4.21,1.44-8.51,5.87-9.38,2.95-.58,5.49.46,7.22,2.86,1.05,1.46,1.93,1.37,3.28.6,5.62-3.2,10.71-7.04,15.16-11.74,1.07-1.13,1.5-2.04.6-3.65-1.82-3.24-.9-7.15,1.84-9.29,2.74-2.15,6.94-2.1,9.56.12,2.68,2.27,3.36,6.35,1.46,9.62-5.06,8.72-12.24,15.36-20.69,20.72-3,1.91-3.32,1.25-1.42,4.91,5.41,10.47,8.46,21.64,9.5,33.36.27,3.03.24,6.08.46,9.12.15,1.98-.67,2.55-2.58,2.56-15.21.04-29.61-3.23-43.14-10.24-.56-.29-1.12-.56-1.69-.83-.14-.06-.3-.07-.28-.06Z"></path>
  <path class="cls-2" d="m372.79,89.76c-.31,5.49-.39,12.22-1.12,18.88-1.38,12.51-12.2,21.26-23.3,23.24-11.31,2.02-21.41-.48-29.7-8.89-4.49-4.56-7.11-10.11-7.29-16.34-.35-12.01-.47-24.06,0-36.06.46-11.55,9.43-21.7,21.24-24.59,12.61-3.09,23.88-.61,32.97,9.22,3.98,4.31,5.96,9.54,6.38,15.28.44,5.99.53,12.01.82,19.26Zm-12.52-.24c-.4-6.5-.6-12.12-1.13-17.71-.88-9.21-8.1-15.83-17.37-15.71-8.43.11-16.39,4.9-17.6,15.46-1.3,11.36-1.25,22.76-.02,34.13.93,8.61,7.63,14.97,15.96,15.4,9.65.49,17.03-4.67,18.61-13.79,1.06-6.12,1.12-12.41,1.55-17.77Z"></path>
  <path class="cls-2" d="m253.25,89.64c.52,5.62.69,12.05,1.82,18.32,1.32,7.33,6.75,11.88,14.18,13.03,7.32,1.14,14.35-2.14,18.01-8.4.47-.81.86-1.67,1.28-2.5,1.72-3.39,5.23-4.7,8.48-3.17,3.06,1.43,4.38,5.04,2.88,8.35-4.1,9.04-11.09,14.66-20.82,16.49-12.75,2.41-23.72-.87-32.13-11.11-4.05-4.93-5.48-10.89-5.62-17.06-.22-9.99-.21-19.99-.02-29.97.3-15.54,12.03-27.55,27.59-28.66,8.58-.61,16.47,1.04,23.25,6.62,3.39,2.78,5.88,6.26,7.64,10.25,1.53,3.47.29,7.09-2.85,8.56-3.32,1.56-6.96.23-8.58-3.33-2.72-5.99-7.05-9.71-13.72-10.73-9.87-1.5-18.7,4.66-19.98,14.54-.77,5.94-.93,11.97-1.42,18.77Z"></path>
  <path class="cls-2" d="m227.84,88.55c0,12.2.03,24.41-.02,36.61-.02,4.3-2.89,6.83-7.11,6.48-2.48-.21-4.62-1.9-5.22-4.36-.33-1.35-.47-2.78-.47-4.17-.03-23-.02-46,0-68.99,0-1.16.09-2.35.34-3.48.76-3.42,3.43-5.37,6.82-5.08,3.18.27,5.62,2.92,5.63,6.39.05,12.2.02,24.41.02,36.61Z"></path>
  <path class="cls-1" d="m351.61,210.57c-.11,1.91-.08,3.64-.32,5.33-.6,4.16-3.85,6.84-8.18,6.87-4.28.03-7.79-2.61-8.2-6.78-.35-3.55-.33-7.19.07-10.73.43-3.88,3.92-6.39,8.04-6.41,4.22-.02,7.57,2.57,8.21,6.54.29,1.76.27,3.57.38,5.18Zm-3.53.32c-.11-1.55-.14-3.11-.35-4.65-.35-2.64-2.2-4.21-4.77-4.17-2.47.04-4.39,1.57-4.55,4.11-.2,3.09-.21,6.22,0,9.31.18,2.56,2.1,4.04,4.6,4.05,2.49.01,4.31-1.48,4.68-4,.23-1.53.25-3.1.37-4.66Z"></path>
  <path class="cls-1" d="m157.79,221.98c-1.08.22-2.16.44-3.47.71v-23.66h3.14v8.24c.8-.38,1.27-.62,1.75-.82,4.08-1.76,7.9.26,8.54,4.66.24,1.69.23,3.43.13,5.14-.36,6.01-4.71,8.26-10.08,5.73Zm6.77-8.21c-.02-.21-.04-.99-.16-1.76-.29-1.83-1.23-3.02-3.22-3.07-2.08-.05-3.18,1.09-3.47,3.04-.15.99-.19,2.02-.17,3.02.07,3.13,1.18,4.64,3.38,4.71,2.37.07,3.52-1.41,3.63-4.68,0-.23,0-.47,0-1.27Z"></path>
  <path class="cls-1" d="m133.96,205.88c-1.86.33-3.35.64-4.32-1.58-.83-1.89-2.73-2.49-4.78-2.15-2.07.34-3.61,1.54-3.75,3.62-.22,3.34-.22,6.71,0,10.05.13,2.08,1.66,3.31,3.73,3.65,2.03.33,3.93-.19,4.8-2.1.9-1.98,2.25-2.07,4.3-1.62-.2,2.24-1.19,4.04-3,5.36-5.42,3.97-12.94.82-13.63-5.83-.31-2.94-.26-5.95,0-8.89.39-4.5,3.64-7.36,8.11-7.52,4.38-.16,7.49,2.31,8.55,7.03Z"></path>
  <path class="cls-1" d="m417.81,212.92c-.74-1.5-.98-2.96-1.81-3.47-2.02-1.24-4.19-.86-6.23.73-.63-.54-1.26-1.08-1.88-1.61,1.54-2.51,4.77-3.36,8.59-2.36,2.75.72,4.08,2.3,4.14,5.2.07,3.58.02,7.16.02,11.32-1.33-.35-2.34-.63-3.36-.86-.31-.07-.68-.05-.98.05-.59.19-1.14.56-1.74.67-2.39.43-4.77.39-6.49-1.62-1.31-1.53-1.58-3.42-.68-5.27,1.17-2.39,3.4-2.77,5.76-2.78,1.32,0,2.63,0,4.66,0Zm-.67,2.44c-1.67,0-3.28-.27-4.72.1-.86.22-1.9,1.4-2.02,2.27-.09.61,1.11,1.84,1.94,2.07,3.21.91,4.99-.72,4.81-4.44Z"></path>
  <path class="cls-1" d="m466.44,215.28h-10.39c-.61,4.08,3.74,5.65,6.54,3.95,1.79-1.09,2.65-.49,3.47,1-2.63,2.6-6.25,3.37-9.49,1.91-3.56-1.6-4.21-4.77-4.15-8.22.1-5.19,3.19-8.37,7.72-8.03,4.49.34,7.02,3.96,6.3,9.39Zm-3.23-2.48c-.32-2.82-1.56-4.11-3.72-4.08-2.15.03-3.34,1.37-3.56,4.08h7.28Z"></path>
  <path class="cls-1" d="m322.45,215.25h-10.55c-.75,3.98,3.49,5.52,6.48,4.05,1.99-.98,2.01-.95,3.55,1.01-2.7,2.63-5.89,3.09-9.3,1.9-3.15-1.1-4.2-3.77-4.37-6.85-.06-1.09-.05-2.2.12-3.27.65-4.02,3.66-6.48,7.51-6.21,3.76.26,6.33,2.97,6.56,6.97.04.69,0,1.39,0,2.4Zm-3.5-2.46c-.17-2.9-1.84-4.45-4.24-4.03-2.08.36-3.16,2-2.68,4.03h6.93Z"></path>
  <path class="cls-1" d="m234.02,220.22c-2.63,2.6-6.25,3.37-9.49,1.91-3.56-1.6-4.22-4.77-4.15-8.22.1-5.19,3.19-8.37,7.72-8.03,4.49.34,7.02,3.96,6.31,9.39-1.73,0-3.5,0-5.28,0s-3.43,0-5.11,0c-.62,4.08,3.74,5.65,6.53,3.95,1.79-1.09,2.65-.49,3.47,1Zm-2.89-7.39c-.19-2.82-1.56-4.23-3.81-4.12-2.16.11-3.36,1.57-3.31,4.12h7.12Z"></path>
  <path class="cls-1" d="m185.77,215.26h-10.68c-.38,4.21,3.84,5.59,6.49,4.02,1.74-1.03,2.68-.71,3.57.85-2.18,2.51-5.49,3.33-8.9,2.21-3.09-1.02-4.35-3.42-4.62-6.42-.13-1.39-.11-2.83.15-4.19.75-3.89,3.8-6.16,7.57-5.83,3.68.33,6.15,2.97,6.41,6.87.05.75,0,1.51,0,2.49Zm-3.54-2.44c-.02-2.57-1.25-4.01-3.41-4.1-2.24-.09-3.57,1.34-3.74,4.1h7.16Z"></path>
  <path class="cls-1" d="m137.93,226.57c3.25-.78,4.63-3.36,3.52-6.37-1.71-4.68-3.44-9.35-5.17-14.03,2.48-.78,3.8-.21,4.43,2.31.71,2.86,1.87,5.61,3.33,8.5.91-2.78,1.83-5.56,2.73-8.34q.99-3.04,4.46-2.5c-1.38,3.76-2.74,7.49-4.11,11.22-1.03,2.78-2.06,5.57-3.12,8.34-1.17,3.06-2.55,3.85-6.08,3.45v-2.58Z"></path>
  <path class="cls-1" d="m26.46,222.68h-3.37c0-3.12.11-6.21-.05-9.29-.06-1.24-.37-2.86-1.2-3.57-.8-.69-2.65-.9-3.61-.44-.94.45-1.81,1.98-1.9,3.1-.25,3.32-.09,6.67-.09,10.15h-3.26c-.05-.51-.13-.96-.13-1.41,0-4.91,0-9.81,0-15.14,1.35.18,2.45.33,3.55.48-.01.24-.03.48-.04.72.61-.31,1.2-.66,1.83-.92,4.05-1.67,8.02.69,8.24,5.05.18,3.65.04,7.32.04,11.26Z"></path>
  <path class="cls-1" d="m79.16,206h3.31c0,3.38-.05,6.64.02,9.9.05,2.48,1.19,3.72,3.24,3.82,2.17.1,3.61-1.25,3.66-3.64.07-3.27.02-6.55.02-10.01h3.22v16.58c-1.3-.23-2.39-.43-3.49-.63.02-.18.03-.37.05-.55-.7.32-1.39.7-2.11.95-3.75,1.34-7.56-.73-7.85-4.59-.29-3.87-.06-7.78-.06-11.83Z"></path>
  <path class="cls-1" d="m268.26,222.58c-1.22-.17-2.31-.33-3.4-.48.01-.21.03-.43.04-.64-.7.32-1.39.67-2.11.94-3.92,1.44-7.72-.85-7.99-4.96-.2-3.04-.06-6.1-.07-9.14,0-.69,0-1.38,0-2.24h3.39c0,3.2-.02,6.38,0,9.56.02,1.82.38,3.46,2.49,3.99,2.49.62,4.37-.89,4.42-3.69.06-3.26.01-6.53.01-9.91h3.19v16.58Z"></path>
  <path class="cls-1" d="m439.35,222.67h-3.39c0-3.28.01-6.46,0-9.63-.01-1.63-.3-3.15-2.05-3.85-2.47-.98-4.7.55-4.77,3.39-.08,3.27-.02,6.54-.02,10h-3.22v-16.81c1.25.5,2.22.95,3.24,1.26.34.1.82-.13,1.19-.31,4.87-2.28,8.93.17,9.02,5.5.06,3.42.01,6.84.01,10.44Z"></path>
  <path class="cls-1" d="m43.04,207.59c-.95,1.62-1.77,2.29-3.54,1.58-1.2-.48-2.76-.32-4.09-.07-.56.11-1.23,1.2-1.26,1.87-.02.47.88,1.27,1.5,1.43,1.43.36,2.95.31,4.4.61,1.78.36,3.21,1.29,3.65,3.21.43,1.89.02,3.58-1.46,4.9-2.89,2.58-9.24,2.16-12.02-.81.85-1.6,1.73-2.03,3.66-1.13,1.47.68,3.47.39,5.2.21.54-.06,1.45-1.3,1.34-1.81-.16-.7-1.04-1.52-1.77-1.74-1.33-.4-2.78-.33-4.17-.57-1.95-.33-3.32-1.39-3.68-3.42-.38-2.16.38-3.93,2.3-4.94,3.33-1.76,6.59-1.28,9.93.67Z"></path>
  <path class="cls-1" d="m203.02,220.31c.96-1.57,1.83-2.04,3.66-1.14,1.39.68,3.33.53,4.97.31.66-.09,1.49-1.32,1.58-2.11.05-.45-1.15-1.32-1.92-1.54-1.26-.37-2.63-.31-3.94-.53-2.05-.34-3.46-1.46-3.76-3.61-.31-2.17.54-3.88,2.49-4.86,3.29-1.65,6.48-1.11,9.72.68-.78,1.58-1.48,2.49-3.42,1.68-1.14-.47-2.63-.44-3.87-.18-.65.14-1.41,1.2-1.52,1.94-.07.42.98,1.3,1.67,1.5,1.26.36,2.63.3,3.94.53,2.1.36,3.67,1.4,4.02,3.66.33,2.13-.41,3.84-2.25,5.03-3.09,1.99-8.69,1.37-11.37-1.35Z"></path>
  <path class="cls-1" d="m384.24,208.3c-.79.73-1.45,1.34-2.07,1.91-3.02-1.63-5.06-1.56-6.47.13-1.46,1.76-1.47,6.19-.02,7.97,1.4,1.73,3.48,1.8,6.46.14.62.56,1.27,1.16,1.92,1.75-2.43,3.06-7.17,3.43-10.14.96-3.25-2.7-3.67-9.49-.8-12.86,2.66-3.12,7.62-3.24,11.12,0Z"></path>
  <path class="cls-1" d="m368.21,208.37c-.74.68-1.36,1.25-1.95,1.79-1.02-.43-1.9-1.01-2.85-1.15-1.98-.3-3.79.46-4.23,2.45-.41,1.83-.42,3.89-.01,5.72.5,2.24,3.32,3.38,5.3,2.12,1.82-1.15,2.63-.41,3.52.95-2.02,2.96-6.89,3.43-9.94.99-3.44-2.76-3.79-9.88-.65-13.2,2.78-2.94,7.75-2.89,10.82.34Z"></path>
  <path class="cls-1" d="m251.32,208.29c-.79.73-1.44,1.34-2.06,1.91-3.05-1.62-5.06-1.56-6.47.12-1.46,1.75-1.49,6.18-.04,7.97,1.4,1.74,3.5,1.82,6.46.15.62.56,1.28,1.15,1.93,1.74-2.39,3.06-7.15,3.45-10.13.99-3.25-2.69-3.69-9.48-.83-12.86,2.65-3.12,7.6-3.26,11.13-.02Z"></path>
  <path class="cls-1" d="m6.59,222.71h-3.33v-23.7h3.33v23.7Z"></path>
  <path class="cls-1" d="m54.57,206.31v2.22c-.96.1-1.93.2-3.16.32,0,3.06-.21,6.11.12,9.09.1.94,1.64,1.72,2.52,2.57.17-.13.34-.25.51-.38v2.29c-4.13,1.39-6.73-1.47-6.58-4.77.09-2.03.07-4.07-.02-6.1-.05-1.15.72-2.81-1.47-3.06-.12-.01-.27-1.96-.11-2,2.52-.73,1.3-2.79,1.62-4.27.06-.3.1-.6.18-1.06h3.18v4.75c1.15.14,2.07.26,3.21.4Z"></path>
  <path class="cls-1" d="m74.74,220.92v1.62c-4.53.69-6.45-.89-6.55-5.29-.04-1.95.05-3.91-.03-5.86-.05-1.09.67-2.66-1.42-2.85-.13-.01-.32-1.94-.18-1.98,2.49-.72,1.4-2.75,1.64-4.26.05-.3.09-.6.16-1.1h3.11c.07,1.56.14,3.09.21,4.74.98.13,1.9.24,2.99.38v2.29c-.94.06-1.85.13-3.04.21,0,3.13-.19,6.25.12,9.32.09.86,1.63,1.57,3,2.79Z"></path>
  <path class="cls-1" d="m99.04,201.13h3.05v4.78c1.16.14,2.07.26,3.15.39.06.68.11,1.35.18,2.22-1.09.11-2.06.21-3.29.33,0,3.06-.21,6.11.12,9.1.1.94,1.66,1.71,2.55,2.57.16-.13.33-.25.49-.38v2.28c-4.06,1.37-6.73-1.41-6.58-4.78.09-2.03.07-4.07-.02-6.1-.05-1.16.7-2.8-1.48-3.05-.15-.02-.36-1.76-.21-1.82,2.62-.96,1.42-3.22,1.78-4.93.03-.15.11-.28.26-.62Z"></path>
  <path class="cls-1" d="m301.23,205.91c1.15.14,2.07.26,3.14.39v2.3c-1.01.07-1.92.13-3.09.21,0,3.09-.21,6.14.12,9.13.1.94,1.64,1.72,2.53,2.58.17-.13.34-.26.51-.39,0,.76,0,1.53,0,2.29-4.16,1.4-6.72-1.5-6.58-4.76.09-2.03.08-4.07-.02-6.1-.05-1.15.73-2.81-1.47-3.06-.12-.01-.27-1.96-.11-2,2.52-.73,1.31-2.78,1.62-4.27.06-.3.1-.6.17-1.06h3.18v4.75Z"></path>
  <path class="cls-1" d="m400.83,208.82c0,2.66.11,5.08-.03,7.49-.13,2.33.46,3.85,3.21,3.68,0,.91,0,1.67,0,2.44-4.26,1.42-6.73-1.58-6.58-4.75.09-2.03.08-4.07-.02-6.1-.06-1.14.76-2.82-1.46-3.06-.13-.01-.27-1.96-.12-2,2.53-.72,1.31-2.78,1.62-4.27.06-.3.1-.6.17-1.07h3.17v4.74c1.15.14,2.07.26,3.14.39v2.3c-.99.07-1.91.13-3.11.21Z"></path>
  <path class="cls-1" d="m190.54,205.94c1.34.3,2.45.55,4.17.94,1.97-1.19,4.62-1.81,7.38.53-1.1,1.39-1.81,2.73-4.09,1.74-2.18-.95-4.13.85-4.19,3.56-.07,3.25-.02,6.51-.02,9.92h-3.25v-16.69Z"></path>
  <path class="cls-1" d="m277.4,222.67h-3.22v-16.61c1.21.2,2.31.38,3.41.57,4.18-1.3,5.68-1.25,8.03.9-1.05,1.39-1.9,2.55-4.14,1.59-2.07-.89-4,.91-4.07,3.46-.08,3.26-.02,6.53-.02,10.08Z"></path>
  <path class="cls-1" d="m447.65,222.69h-3.07v-16.71h3.07v16.71Z"></path>
  <path class="cls-1" d="m391.29,222.68h-3.08v-16.71h3.08v16.71Z"></path>
  <path class="cls-1" d="m292.16,222.68h-3.02v-16.68h3.02v16.68Z"></path>
  <path class="cls-1" d="m59.45,205.91h3.04v16.69h-3.04v-16.69Z"></path>
  <path class="cls-1" d="m314.27,202.46c1.29-4.83,1.74-5.24,5.32-4.88-1.37,3.88-3.04,5.42-5.32,4.88Z"></path>
  <path class="cls-1" d="m232.41,197.67c-2.29,1.8-2.22,5.37-5.85,5.09.48-4.3,1.77-5.55,5.85-5.09Z"></path>
  <path class="cls-1" d="m62.62,199.03v3.33h-3.29c-.06-1.05-.13-2.09-.2-3.33h3.49Z"></path>
  <path class="cls-1" d="m391.37,198.99v3.23c-3.49.62-3.75.36-3.17-3.23h3.17Z"></path>
  <path class="cls-1" d="m288.97,202.35v-3.31h3.29v3.31h-3.29Z"></path>
  <path class="cls-1" d="m444.62,198.97h3.09c0,1.08,0,2.13,0,3.17-3.31.91-3.81.42-3.09-3.17Z"></path>
</svg>
